<?xml version="1.0" encoding="utf-8"?>
<!-- Generator: Adobe Illustrator 24.3.0, SVG Export Plug-In . SVG Version: 6.00 Build 0)  -->
<svg version="1.1" id="Layer_1" xmlns="http://www.w3.org/2000/svg" xmlns:xlink="http://www.w3.org/1999/xlink" x="0px" y="0px"
	 viewBox="0 0 310.7 78" style="enable-background:new 0 0 310.7 78;" xml:space="preserve">
<style type="text/css">
	.st0{fill-rule:evenodd;clip-rule:evenodd;fill:#8B8B8B;}
	.st1{fill:#8B8B8B;}
</style>
<g>
	<g>
		<path class="st0" d="M77.9,31.5c-9.7,5.2-23.1,6.5-34,6.5c-7.6,0-14.9-0.7-22.2-2.3c-5.3-1.3-16.9-4.4-17.4-11.1v-0.2H3.9v7.7
			c0.2,3.3,2.4,5,4.9,6.7c5.5,3.3,11.6,4.7,17.8,5.8C32.3,45.5,38,46,43.9,46c7,0,13.8-0.6,20.7-2C69,43,73,41.9,77,39.9
			c3.2-1.7,6.6-3.8,6.9-7.8v-7.7h-0.4v0.2C83.3,28.1,80.6,29.9,77.9,31.5L77.9,31.5z M43.9,11.3c1.1,0,6.5,0.2,6.5,1.9
			s-5.5,1.9-6.5,1.9c-1.1,0-6.5-0.2-6.5-1.9C37.3,11.5,42.8,11.3,43.9,11.3L43.9,11.3z M54.5,12.9v3.5c-0.4,5.4-21,5.4-21.4,0v-3.5
			h0.4v0.2c0.3,4.8,20.2,5,20.6,0v-0.2H54.5z"/>
		<g>
			<path class="st0" d="M27.5,54.4l9.2-5.2c-5.8-0.3-11.5-1.1-17.2-2.3C13.7,45.5,0.9,42,0.4,34.7v-0.2H0v6.4v1.9v4.4v2.1v1v5.3v3.1
				c0.7,8.9,18,12.5,24.9,13.7c0.9,0.1,1.7,0.2,2.6,0.4V54.4z"/>
			<path class="st0" d="M87.7,40.9v-6.4h-0.4v0.2c-0.3,3.8-3.3,5.8-6.2,7.6c-8.6,4.6-19.8,6.4-30,7l9.2,5.1v18.3
				c2.1-0.3,4.2-0.6,6.3-1.1c4.8-1,9.2-2.3,13.6-4.4c3.5-1.9,7.2-4.2,7.6-8.5v-8.4l0,0v-3.1l0,0L87.7,40.9L87.7,40.9z"/>
			<path class="st0" d="M48.9,64.9c0-2.8-2.2-5-5-5s-5,2.2-5,5v8.9c1.7,0.1,3.3,0.1,5,0.1s3.4,0,5-0.1V64.9z"/>
		</g>
		<path class="st0" d="M64.9,8.7c-6-1.8-12.8-2.5-19.2-2.6l0,0c-0.6,0-3.1,0-3.7,0l0,0c-6.6,0.1-13.8,0.8-20.1,2.6
			c-2.7,0.8-9,3-9,6.6c0,1.3,0.9,2.4,1.9,3.2h0.6C14.7,17.8,14,17.1,14,16c0-3,6.3-5,8.5-5.6C28.6,8.8,35.6,8.1,42,8.1l0,0
			c0.1,0,1.3,0,1.4,0c0.4,0,1.9,0,2.3,0l0,0c6.1,0.1,12.8,0.8,18.6,2.4c2.2,0.6,8.5,2.6,8.5,5.6c0,1.1-0.7,1.8-1.4,2.5H72
			c1-0.8,1.9-1.9,1.9-3.2C73.9,11.7,67.6,9.5,64.9,8.7z"/>
		<path class="st0" d="M68.7,7.6c-7.1-2.4-15.4-3.4-23-3.5l0,0c-0.3,0-1.6,0-1.8,0c-0.3,0-1.6,0-1.8,0l0,0C36.3,4.2,30.4,4.8,24.8,6
			c-4.2,0.9-9.3,2.5-12.8,5l-0.2,0.1l0.2,0.3l0.2-0.1C19.7,6.6,33,5.2,42,5.1c0.6,0,3.2,0,3.8,0l0,0C53,5.3,61,6.2,67.8,8.5
			c3.3,1.1,10.1,4,10.1,8.3c0,1.7-1.1,3.1-2.3,4.2c-1.2,1-2.4,1.6-3.8,2.3c-9.1,3.9-19.9,4.9-29.7,4.8C35.6,28,29.3,27.3,23,25.7
			c-4.4-1.2-13.5-3.8-13.9-9.4v-0.2H8.7v6.7c0.2,2.5,1.6,3.9,3.5,5.4c4.9,3.3,10.8,4.6,16.5,5.6c5.7,0.9,11.3,1.3,17,1.2
			c6.5-0.1,12.8-0.8,19.2-2.4c4.6-1.2,13.8-4,14.2-9.8v-6.6C79.1,11.8,72.2,8.9,68.7,7.6z"/>
	</g>
	<g>
		<g>
			<path class="st1" d="M104.1,45.6V28.2h-3v-6.4h3V21c0-2.7,0.9-5.9,3.1-7.8c2-1.8,4.7-2.5,6.9-2.5c1.6,0,2.9,0.2,4,0.4l-0.1,6.7
				c-0.7-0.1-1.4-0.2-2.2-0.2c-1.9,0-3,1.4-3,3v1.2h4.4v6.4h-4.3v17.4H104.1z"/>
			<path class="st1" d="M130.8,46.2c-7.1,0-12.6-4.5-12.6-12.2c0-7.6,5-12.6,13.1-12.6c7.5,0,12.4,5,12.4,12.2
				C143.6,42.1,137.4,46.2,130.8,46.2L130.8,46.2z M131,40c2.4,0,3.6-2.5,3.6-6.3c0-3.3-1.1-6.3-3.6-6.3c-2.9,0-3.9,3.1-3.9,6.3
				C127.1,37.3,128.3,40,131,40L131,40z"/>
			<path class="st1" d="M146.8,29.9c0-3.8,0-6.1-0.2-8h7.5l0.3,4.3h0.2c1.3-3.6,4.3-4.8,6.3-4.8c0.8,0,1.1,0,1.7,0.1v8.2
				c-0.6-0.1-1.3-0.2-2.2-0.2c-2.6,0-4.3,1.1-4.8,3c0,0.4-0.1,0.9-0.1,1.5v11.8h-8.8V29.9H146.8z"/>
			<path class="st1" d="M175.9,15v6.8h4.9v6.4h-4.9V35c0,2.8,0.6,4,2.8,4c1,0,1.4,0,2.1-0.2v6.6c-1,0.4-3,0.7-5.2,0.7
				c-2.6,0-4.7-0.9-6-2.2c-1.5-1.5-2.2-3.8-2.2-7.4v-8.3h-3v-6.4h3v-4.5L175.9,15z"/>
			<path class="st1" d="M187.4,45.6V25.4h-3.3v-3.2h3.3v-1.3c0-6.2,3.6-10.2,10.2-10.2c2.2,0,4.7,0.7,6,1.5l-1.2,3.2
				c-1-0.7-2.9-1.4-4.9-1.4c-4.5,0-5.8,3.1-5.8,6.9v1.2h13.6v23.4H201V25.4h-9.4v20.2H187.4z"/>
			<path class="st1" d="M216.2,15.5v6.7h6.1v3.2h-6.1V38c0,2.9,0.8,4.5,3.2,4.5c1.1,0,1.9-0.1,2.5-0.3l0.2,3.2
				c-0.8,0.3-2.1,0.6-3.8,0.6c-2,0-3.6-0.6-4.6-1.8c-1.2-1.3-1.6-3.3-1.6-6.1V25.4h-3.6v-3.2h3.6v-5.6L216.2,15.5z"/>
			<path class="st1" d="M225.9,28.5c0-2.4,0-4.4-0.2-6.3h3.8l0.2,3.9h0.1c1.2-2.2,3.9-4.4,7.7-4.4c3.2,0,8.3,1.9,8.3,10v14h-4.3
				V32.1c0-3.8-1.4-6.9-5.4-6.9c-2.8,0-5,2-5.7,4.4c-0.2,0.5-0.3,1.3-0.3,2v14.1h-4.3L225.9,28.5L225.9,28.5z"/>
			<path class="st1" d="M253.9,34.7c0.1,5.8,3.8,8.1,8,8.1c3,0,4.9-0.5,6.5-1.2l0.7,3c-1.5,0.7-4.1,1.5-7.8,1.5
				c-7.2,0-11.5-4.7-11.5-11.8s4.2-12.6,11-12.6c7.6,0,9.7,6.7,9.7,11c0,0.9-0.1,1.5-0.1,2C270.4,34.7,253.9,34.7,253.9,34.7z
				 M266.4,31.6c0-2.7-1.1-6.9-5.9-6.9c-4.3,0-6.2,4-6.5,6.9H266.4z"/>
			<path class="st1" d="M274,41.3c1.3,0.8,3.5,1.7,5.6,1.7c3.1,0,4.5-1.5,4.5-3.5s-1.2-3.1-4.4-4.3c-4.2-1.5-6.2-3.8-6.2-6.6
				c0-3.8,3-6.9,8.1-6.9c2.4,0,4.5,0.7,5.8,1.5l-1.1,3.1c-0.9-0.6-2.6-1.4-4.8-1.4c-2.5,0-3.9,1.5-3.9,3.2c0,1.9,1.4,2.8,4.5,4
				c4.1,1.5,6.1,3.6,6.1,7.1c0,4.1-3.2,7-8.8,7c-2.6,0-4.9-0.6-6.6-1.6L274,41.3z"/>
			<path class="st1" d="M291.9,41.3c1.3,0.8,3.5,1.7,5.6,1.7c3.1,0,4.5-1.5,4.5-3.5s-1.2-3.1-4.4-4.3c-4.2-1.5-6.2-3.8-6.2-6.6
				c0-3.8,3-6.9,8.1-6.9c2.4,0,4.5,0.7,5.8,1.5l-1.1,3.1c-0.9-0.6-2.6-1.4-4.8-1.4c-2.5,0-3.9,1.5-3.9,3.2c0,1.9,1.4,2.8,4.5,4
				c4.1,1.5,6.1,3.6,6.1,7.1c0,4.1-3.2,7-8.8,7c-2.6,0-4.9-0.6-6.6-1.6L291.9,41.3z"/>
		</g>
		<g>
			<path class="st1" d="M103.2,58.3V62h4.2v-3.7h1.1v8.8h-1.1V63h-4.2v4.1h-1.1v-8.8H103.2z"/>
			<path class="st1" d="M118.7,63h-3.4v3.2h3.7v0.9h-4.9v-8.8h4.7v0.9h-3.5V62h3.4C118.7,62,118.7,63,118.7,63z"/>
			<path class="st1" d="M125.8,64.3l-0.9,2.8h-1.2l2.9-8.8h1.3l2.9,8.8h-1.2l-0.9-2.8H125.8z M128.6,63.4l-0.8-2.5
				c-0.2-0.6-0.3-1.1-0.4-1.6l0,0c-0.1,0.5-0.3,1.1-0.4,1.6l-0.8,2.5H128.6z"/>
			<path class="st1" d="M136.1,58.3h1.1v7.8h3.7V67h-4.8V58.3z"/>
			<path class="st1" d="M146.5,59.3h-2.6v-1h6.4v1h-2.6v7.8h-1.1L146.5,59.3L146.5,59.3z"/>
			<path class="st1" d="M156.1,58.3V62h4.2v-3.7h1.1v8.8h-1.1V63h-4.2v4.1H155v-8.8H156.1z"/>
			<path class="st1" d="M179.2,67.1c-0.2-0.2-0.5-0.5-0.8-0.9c-0.7,0.7-1.6,1-2.5,1c-1.7,0-2.6-1.1-2.6-2.5c0-1.2,0.7-2,1.7-2.6l0,0
				c-0.4-0.6-0.7-1.2-0.7-1.8c0-1.1,0.8-2.2,2.2-2.2c1.1,0,1.9,0.7,1.9,1.9c0,0.9-0.5,1.7-1.9,2.3l0,0c0.7,0.9,1.5,1.8,2.1,2.4
				c0.4-0.6,0.7-1.5,0.8-2.6h1c-0.2,1.4-0.6,2.5-1.2,3.2c0.5,0.5,0.9,1,1.4,1.5h-1.4V67.1z M177.8,65.6c-0.5-0.6-1.5-1.6-2.4-2.8
				c-0.5,0.3-1.1,0.9-1.1,1.8c0,1,0.7,1.8,1.8,1.8C176.8,66.4,177.4,66,177.8,65.6z M175.2,60.2c0,0.6,0.3,1.1,0.7,1.6
				c0.9-0.5,1.4-1,1.4-1.7c0-0.5-0.3-1.1-1-1.1C175.6,59,175.2,59.6,175.2,60.2z"/>
			<path class="st1" d="M191.9,58.3h4.6v0.9H193v2.9h3.3V63H193v4h-1.1V58.3z"/>
			<path class="st1" d="M203.1,58.3v8.8H202v-8.8H203.1z"/>
			<path class="st1" d="M210.5,59.3h-2.6v-1h6.4v1h-2.6v7.8h-1.1L210.5,59.3L210.5,59.3z"/>
			<path class="st1" d="M219.1,67.1v-8.8h1.2l2.8,4.4c0.6,1,1.1,2,1.5,2.8l0,0c-0.1-1.2-0.1-2.2-0.1-3.6v-3.7h1V67h-1.1l-2.7-4.4
				c-0.6-1-1.2-2-1.6-2.9l0,0c0.1,1.1,0.1,2.2,0.1,3.6V67L219.1,67.1L219.1,67.1L219.1,67.1z"/>
			<path class="st1" d="M235.8,63h-3.4v3.2h3.7v0.9h-4.9v-8.8h4.7v0.9h-3.5V62h3.4V63z"/>
			<path class="st1" d="M241.4,65.7c0.5,0.3,1.2,0.6,2,0.6c1.1,0,1.8-0.6,1.8-1.5c0-0.8-0.5-1.3-1.6-1.7c-1.4-0.5-2.3-1.2-2.3-2.5
				c0-1.4,1.1-2.4,2.8-2.4c0.9,0,1.5,0.2,1.9,0.4l-0.3,0.9c-0.3-0.2-0.9-0.4-1.6-0.4c-1.2,0-1.6,0.7-1.6,1.3c0,0.8,0.5,1.2,1.7,1.7
				c1.5,0.6,2.2,1.3,2.2,2.6c0,1.4-1,2.5-3,2.5c-0.8,0-1.7-0.2-2.2-0.6L241.4,65.7z"/>
			<path class="st1" d="M251.5,65.7c0.5,0.3,1.2,0.6,2,0.6c1.1,0,1.8-0.6,1.8-1.5c0-0.8-0.5-1.3-1.6-1.7c-1.4-0.5-2.3-1.2-2.3-2.5
				c0-1.4,1.1-2.4,2.8-2.4c0.9,0,1.5,0.2,1.9,0.4l-0.3,0.9c-0.3-0.2-0.9-0.4-1.6-0.4c-1.2,0-1.6,0.7-1.6,1.3c0,0.8,0.5,1.2,1.7,1.7
				c1.5,0.6,2.2,1.3,2.2,2.6c0,1.4-1,2.5-3,2.5c-0.8,0-1.7-0.2-2.2-0.6L251.5,65.7z"/>
			<path class="st1" d="M274.4,66.8c-0.4,0.2-1.2,0.4-2.3,0.4c-2.4,0-4.3-1.6-4.3-4.4c0-2.7,1.8-4.6,4.5-4.6c1.1,0,1.8,0.2,2,0.4
				l-0.3,0.9c-0.4-0.2-1-0.4-1.7-0.4c-2,0-3.4,1.3-3.4,3.6c0,2.1,1.2,3.5,3.3,3.5c0.7,0,1.4-0.1,1.8-0.4L274.4,66.8z"/>
			<path class="st1" d="M279.7,58.3h1.1v7.8h3.7V67h-4.8L279.7,58.3L279.7,58.3z"/>
			<path class="st1" d="M290.2,58.3v5.2c0,2,0.9,2.8,2,2.8c1.3,0,2.1-0.9,2.1-2.8v-5.2h1.1v5.1c0,2.7-1.4,3.8-3.3,3.8
				c-1.8,0-3.1-1-3.1-3.7v-5.2C289,58.3,290.2,58.3,290.2,58.3z"/>
			<path class="st1" d="M301.2,58.4c0.5-0.1,1.3-0.2,2-0.2c1.1,0,1.8,0.2,2.4,0.6c0.4,0.3,0.7,0.9,0.7,1.5c0,0.8-0.6,1.6-1.5,1.9
				l0,0c0.8,0.2,1.8,0.9,1.8,2.2c0,0.8-0.3,1.3-0.7,1.8c-0.6,0.6-1.6,0.8-3,0.8c-0.8,0-1.4-0.1-1.7-0.1L301.2,58.4L301.2,58.4z
				 M302.3,62h1c1.2,0,1.9-0.6,1.9-1.5c0-1-0.8-1.4-1.9-1.4c-0.5,0-0.8,0-1,0.1V62z M302.3,66.2c0.2,0,0.5,0.1,0.9,0.1
				c1.2,0,2.2-0.4,2.2-1.7c0-1.2-1-1.7-2.2-1.7h-0.9V66.2z"/>
		</g>
	</g>
</g>
</svg>
